<?xml version="1.0" encoding="UTF-8"?>
<svg width="140px" height="111px" viewBox="0 0 140 111" version="1.1" xmlns="http://www.w3.org/2000/svg" xmlns:xlink="http://www.w3.org/1999/xlink">
    <!-- Generator: Sketch 52.2 (67145) - http://www.bohemiancoding.com/sketch -->
    <title>logo</title>
    <desc>Created with Sketch.</desc>
    <g id="Page-1" stroke="none" stroke-width="1" fill="none" fill-rule="evenodd">
        <g id="logo">
            <rect id="backgroundrect" x="0" y="6.40998959" width="139.878599" height="103.976182"></rect>
            <g id="Layer-1" transform="translate(0.194242, 0.000000)">
                <g id="Layer_x0020_1">
                    <path d="M7.37311481,107.901492 C8.73280957,107.901492 9.82542144,108.994103 9.82542144,110.353798 L12.2777281,110.353798 C12.2777281,108.994103 13.3703399,107.901492 14.7300347,107.901492 C16.0897294,107.901492 17.1823413,108.994103 17.1823413,110.353798 L19.6346479,110.353798 C19.6346479,108.994103 20.7272598,107.901492 22.0869546,107.901492 C23.4466493,107.901492 24.5392612,108.994103 24.5392612,110.353798 L26.9915678,110.353798 C26.9915678,108.994103 28.0841797,107.901492 29.4438744,107.901492 C30.8035692,107.901492 31.8961811,108.994103 31.8961811,110.353798 L34.3484877,110.353798 C34.3484877,108.994103 35.4410995,107.901492 36.8007943,107.901492 C38.1604891,107.901492 39.2531009,108.994103 39.2531009,110.353798 L41.7054076,110.353798 C41.7054076,108.994103 42.7980194,107.901492 44.1577142,107.901492 C45.5174089,107.901492 46.6100208,108.994103 46.6100208,110.353798 L49.0623274,110.353798 C49.0623274,108.994103 50.1549393,107.901492 51.5146341,107.901492 C52.8743288,107.901492 53.9669407,108.994103 53.9669407,110.353798 L56.4192473,110.353798 C56.4192473,108.994103 57.5118592,107.901492 58.8715539,107.901492 C60.2312487,107.901492 61.3238606,108.994103 61.3238606,110.353798 L63.7761672,110.353798 C63.7761672,108.994103 64.868779,107.901492 66.2284738,107.901492 C67.5881686,107.901492 68.6807804,108.994103 68.6807804,110.353798 L71.1330871,110.353798 C71.1330871,108.994103 72.2256989,107.901492 73.5853937,107.901492 C74.9450884,107.901492 76.0377003,108.994103 76.0377003,110.353798 L78.4900069,110.353798 C78.4900069,108.994103 79.5826188,107.901492 80.9423136,107.901492 C82.3020083,107.901492 83.3946202,108.994103 83.3946202,110.353798 L85.8469268,110.353798 C85.8469268,108.994103 86.9395387,107.901492 88.2992334,107.901492 C89.6589282,107.901492 90.7515401,108.994103 90.7515401,110.353798 L93.2038467,110.353798 C93.2038467,108.994103 94.2964586,107.901492 95.6561533,107.901492 C97.0158481,107.901492 98.1084599,108.994103 98.1084599,110.353798 L100.560767,110.353798 C100.560767,108.994103 101.653378,107.901492 103.013073,107.901492 C104.372768,107.901492 105.46538,108.994103 105.46538,110.353798 L107.917686,110.353798 C107.917686,108.994103 109.010298,107.901492 110.369993,107.901492 C111.729688,107.901492 112.8223,108.994103 112.8223,110.353798 L115.274606,110.353798 C115.274606,108.994103 116.367218,107.901492 117.726913,107.901492 C119.086608,107.901492 120.17922,108.994103 120.17922,110.353798 L122.631526,110.353798 C122.631526,108.994103 123.724138,107.901492 125.083833,107.901492 C126.443528,107.901492 127.536139,108.994103 127.536139,110.353798 L129.988446,110.353798 C129.988446,108.994103 131.081058,107.901492 132.440753,107.901492 C133.800447,107.901492 134.893059,108.994103 134.893059,110.353798 L137.345366,110.353798 C137.345366,108.994103 138.437978,107.901492 139.797673,107.901492 L139.797673,105.449185 C138.437978,105.449185 137.345366,104.356573 137.345366,102.996878 C137.345366,101.637183 138.437978,100.544572 139.797673,100.544572 L139.797673,98.092265 C138.437978,98.092265 137.345366,96.9996531 137.345366,95.6399584 C137.345366,94.2802636 138.437978,93.1876518 139.797673,93.1876518 L139.797673,90.7353451 C138.437978,90.7353451 137.345366,89.6427333 137.345366,88.2830385 C137.345366,86.9233437 138.437978,85.8307319 139.797673,85.8307319 L139.797673,83.3784253 C138.437978,83.3784253 137.345366,82.2858134 137.345366,80.9261186 C137.345366,79.5664239 138.437978,78.473812 139.797673,78.473812 L139.797673,76.0215054 C138.437978,76.0215054 137.345366,74.9288935 137.345366,73.5691988 C137.345366,72.209504 138.437978,71.1168921 139.797673,71.1168921 L139.797673,68.6645855 C138.437978,68.6645855 137.345366,67.5719736 137.345366,66.2122789 C137.345366,64.8525841 138.437978,63.7599723 139.797673,63.7599723 L139.797673,61.3076656 C138.437978,61.3076656 137.345366,60.2150538 137.345366,58.855359 C137.345366,57.4956642 138.437978,56.4030524 139.797673,56.4030524 L139.797673,53.9507458 C138.437978,53.9507458 137.345366,52.8581339 137.345366,51.4984391 C137.345366,50.1387444 138.437978,49.0461325 139.797673,49.0461325 L139.797673,46.5938259 C138.437978,46.5938259 137.345366,45.501214 137.345366,44.1415193 C137.345366,42.7818245 138.437978,41.6892126 139.797673,41.6892126 L139.797673,39.236906 C138.437978,39.236906 137.345366,38.1442941 137.345366,36.7845994 C137.345366,35.4249046 138.437978,34.3322928 139.797673,34.3322928 L139.797673,31.8799861 C138.437978,31.8799861 137.345366,30.7873743 137.345366,29.4276795 C137.345366,28.0679847 138.437978,26.9753729 139.797673,26.9753729 L139.797673,24.5230663 C138.437978,24.5230663 137.345366,23.4304544 137.345366,22.0707596 C137.345366,20.7110649 138.437978,19.618453 139.797673,19.618453 L139.797673,17.1661464 C138.437978,17.1661464 137.345366,16.0735345 137.345366,14.7138398 C137.345366,13.354145 138.437978,12.2615331 139.797673,12.2615331 L139.797673,9.8092265 C138.437978,9.8092265 137.345366,8.71661464 137.345366,7.35691988 C137.345366,5.99722511 138.437978,4.90461325 139.797673,4.90461325 L139.797673,2.45230663 C138.437978,2.45230663 137.345366,1.35969476 137.345366,0 L134.893059,0 C134.893059,1.35969476 133.800447,2.45230663 132.440753,2.45230663 C131.081058,2.45230663 129.988446,1.35969476 129.988446,0 L127.536139,0 C127.536139,1.35969476 126.443528,2.45230663 125.083833,2.45230663 C123.724138,2.45230663 122.631526,1.35969476 122.631526,0 L120.17922,0 C120.17922,1.35969476 119.086608,2.45230663 117.726913,2.45230663 C116.367218,2.45230663 115.274606,1.35969476 115.274606,0 L112.8223,0 C112.8223,1.35969476 111.729688,2.45230663 110.369993,2.45230663 C109.010298,2.45230663 107.917686,1.35969476 107.917686,0 L105.46538,0 C105.46538,1.35969476 104.372768,2.45230663 103.013073,2.45230663 C101.653378,2.45230663 100.560767,1.35969476 100.560767,0 L98.1084599,0 C98.1084599,1.35969476 97.0158481,2.45230663 95.6561533,2.45230663 C94.2964586,2.45230663 93.2038467,1.35969476 93.2038467,0 L90.7515401,0 C90.7515401,1.35969476 89.6589282,2.45230663 88.2992334,2.45230663 C86.9395387,2.45230663 85.8469268,1.35969476 85.8469268,0 L83.3946202,0 C83.3946202,1.35969476 82.3020083,2.45230663 80.9423136,2.45230663 C79.5826188,2.45230663 78.4900069,1.35969476 78.4900069,0 L76.0377003,0 C76.0377003,1.35969476 74.9450884,2.45230663 73.5853937,2.45230663 C72.2256989,2.45230663 71.1330871,1.35969476 71.1330871,0 L68.6807804,0 C68.6807804,1.35969476 67.5881686,2.45230663 66.2284738,2.45230663 C64.868779,2.45230663 63.7761672,1.35969476 63.7761672,0 L61.3238606,0 C61.3238606,1.35969476 60.2312487,2.45230663 58.8715539,2.45230663 C57.5118592,2.45230663 56.4192473,1.35969476 56.4192473,0 L53.9669407,0 C53.9669407,1.35969476 52.8743288,2.45230663 51.5146341,2.45230663 C50.1549393,2.45230663 49.0623274,1.35969476 49.0623274,0 L46.6100208,0 C46.6100208,1.35969476 45.5174089,2.45230663 44.1577142,2.45230663 C42.7980194,2.45230663 41.7054076,1.35969476 41.7054076,0 L39.2531009,0 C39.2531009,1.35969476 38.1604891,2.45230663 36.8007943,2.45230663 C35.4410995,2.45230663 34.3484877,1.35969476 34.3484877,0 L31.8961811,0 C31.8961811,1.35969476 30.8035692,2.45230663 29.4438744,2.45230663 C28.0841797,2.45230663 26.9915678,1.35969476 26.9915678,0 L24.5392612,0 C24.5392612,1.35969476 23.4466493,2.45230663 22.0869546,2.45230663 C20.7272598,2.45230663 19.6346479,1.35969476 19.6346479,0 L17.1823413,0 C17.1823413,1.35969476 16.0897294,2.45230663 14.7300347,2.45230663 C13.3703399,2.45230663 12.2777281,1.35969476 12.2777281,0 L9.82542144,0 C9.82542144,1.35969476 8.73280957,2.45230663 7.37311481,2.45230663 C6.01342005,2.45230663 4.92080819,1.35969476 4.92080819,0 L2.46850156,0 C2.46850156,1.35969476 1.3758897,2.45230663 0.0161949358,2.45230663 L0.0161949358,4.90461325 C1.3758897,4.90461325 2.46850156,5.99722511 2.46850156,7.35691988 C2.46850156,8.71661464 1.3758897,9.8092265 0.0161949358,9.8092265 L0.0161949358,12.2615331 C1.3758897,12.2615331 2.46850156,13.354145 2.46850156,14.7138398 C2.46850156,16.0735345 1.3758897,17.1661464 0.0161949358,17.1661464 L0.0161949358,19.618453 C1.3758897,19.618453 2.46850156,20.7110649 2.46850156,22.0707596 C2.46850156,23.4304544 1.3758897,24.5230663 0.0161949358,24.5230663 L0.0161949358,26.9753729 C1.3758897,26.9753729 2.46850156,28.0679847 2.46850156,29.4276795 C2.46850156,30.7873743 1.3758897,31.8799861 0.0161949358,31.8799861 L0.0161949358,34.3322928 C1.3758897,34.3322928 2.46850156,35.4249046 2.46850156,36.7845994 C2.46850156,38.1442941 1.3758897,39.236906 0.0161949358,39.236906 L0.0161949358,41.6892126 C1.3758897,41.6892126 2.46850156,42.7818245 2.46850156,44.1415193 C2.46850156,45.501214 1.3758897,46.5938259 0.0161949358,46.5938259 L0.0161949358,49.0461325 C1.3758897,49.0461325 2.46850156,50.1387444 2.46850156,51.4984391 C2.46850156,52.8581339 1.3758897,53.9507458 0.0161949358,53.9507458 L0.0161949358,56.4030524 C1.3758897,56.4030524 2.46850156,57.4956642 2.46850156,58.855359 C2.46850156,60.2150538 1.3758897,61.3076656 0.0161949358,61.3076656 L0.0161949358,63.7599723 C1.3758897,63.7599723 2.46850156,64.8525841 2.46850156,66.2122789 C2.46850156,67.5719736 1.3758897,68.6645855 0.0161949358,68.6645855 L0.0161949358,71.1168921 C1.3758897,71.1168921 2.46850156,72.209504 2.46850156,73.5691988 C2.46850156,74.9288935 1.3758897,76.0215054 0.0161949358,76.0215054 L0.0161949358,78.473812 C1.3758897,78.473812 2.46850156,79.5664239 2.46850156,80.9261186 C2.46850156,82.2858134 1.3758897,83.3784253 0.0161949358,83.3784253 L0.0161949358,85.8307319 C1.3758897,85.8307319 2.46850156,86.9233437 2.46850156,88.2830385 C2.46850156,89.6427333 1.3758897,90.7353451 0.0161949358,90.7353451 L0.0161949358,93.1876518 C1.3758897,93.1876518 2.46850156,94.2802636 2.46850156,95.6399584 C2.46850156,96.9996531 1.3758897,98.092265 0.0161949358,98.092265 L0.0161949358,100.544572 C1.3758897,100.544572 2.46850156,101.637183 2.46850156,102.996878 C2.46850156,104.356573 1.3758897,105.449185 0.0161949358,105.449185 L0.0161949358,107.901492 C1.3758897,107.901492 2.46850156,108.994103 2.46850156,110.353798 L4.92080819,110.353798 C4.92080819,108.994103 6.01342005,107.901492 7.37311481,107.901492 Z" id="svg_1" fill="#EFEFF0"></path>
                    <path d="M7.37311481,107.901492 C8.73280957,107.901492 9.82542144,108.994103 9.82542144,110.353798 L12.2777281,110.353798 C12.2777281,108.994103 13.3703399,107.901492 14.7300347,107.901492 C16.0897294,107.901492 17.1823413,108.994103 17.1823413,110.353798 L19.6346479,110.353798 C19.6346479,108.994103 20.7272598,107.901492 22.0869546,107.901492 C23.4466493,107.901492 24.5392612,108.994103 24.5392612,110.353798 L26.9915678,110.353798 C26.9915678,108.994103 28.0841797,107.901492 29.4438744,107.901492 C30.8035692,107.901492 31.8961811,108.994103 31.8961811,110.353798 L34.3484877,110.353798 C34.3484877,108.994103 35.4410995,107.901492 36.8007943,107.901492 C38.1604891,107.901492 39.2531009,108.994103 39.2531009,110.353798 L41.7054076,110.353798 C41.7054076,108.994103 42.7980194,107.901492 44.1577142,107.901492 C45.5174089,107.901492 46.6100208,108.994103 46.6100208,110.353798 L49.0623274,110.353798 C49.0623274,108.994103 50.1549393,107.901492 51.5146341,107.901492 C52.8743288,107.901492 53.9669407,108.994103 53.9669407,110.353798 L56.4192473,110.353798 C56.4192473,108.994103 57.5118592,107.901492 58.8715539,107.901492 C60.2312487,107.901492 61.3238606,108.994103 61.3238606,110.353798 L63.7761672,110.353798 C63.7761672,108.994103 64.868779,107.901492 66.2284738,107.901492 C67.5881686,107.901492 68.6807804,108.994103 68.6807804,110.353798 L71.1330871,110.353798 C71.1330871,108.994103 72.2256989,107.901492 73.5853937,107.901492 C74.9450884,107.901492 76.0377003,108.994103 76.0377003,110.353798 L78.4900069,110.353798 C78.4900069,108.994103 79.5826188,107.901492 80.9423136,107.901492 C82.3020083,107.901492 83.3946202,108.994103 83.3946202,110.353798 L85.8469268,110.353798 C85.8469268,108.994103 86.9395387,107.901492 88.2992334,107.901492 C89.6589282,107.901492 90.7515401,108.994103 90.7515401,110.353798 L93.2038467,110.353798 C93.2038467,108.994103 94.2964586,107.901492 95.6561533,107.901492 C97.0158481,107.901492 98.1084599,108.994103 98.1084599,110.353798 L100.560767,110.353798 C100.560767,108.994103 101.653378,107.901492 103.013073,107.901492 C104.372768,107.901492 105.46538,108.994103 105.46538,110.353798 L107.917686,110.353798 C107.917686,108.994103 109.010298,107.901492 110.369993,107.901492 C111.729688,107.901492 112.8223,108.994103 112.8223,110.353798 L115.274606,110.353798 C115.274606,108.994103 116.367218,107.901492 117.726913,107.901492 C119.086608,107.901492 120.17922,108.994103 120.17922,110.353798 L122.631526,110.353798 C122.631526,108.994103 123.724138,107.901492 125.083833,107.901492 C126.443528,107.901492 127.536139,108.994103 127.536139,110.353798 L129.988446,110.353798 C129.988446,108.994103 131.081058,107.901492 132.440753,107.901492 C133.800447,107.901492 134.893059,108.994103 134.893059,110.353798 L137.345366,110.353798 C137.345366,108.994103 138.437978,107.901492 139.797673,107.901492 L139.797673,105.449185 C138.437978,105.449185 137.345366,104.356573 137.345366,102.996878 C137.345366,101.637183 138.437978,100.544572 139.797673,100.544572 L139.797673,98.092265 C138.437978,98.092265 137.345366,96.9996531 137.345366,95.6399584 C137.345366,94.2802636 138.437978,93.1876518 139.797673,93.1876518 L139.797673,90.7353451 C138.437978,90.7353451 137.345366,89.6427333 137.345366,88.2830385 C137.345366,86.9233437 138.437978,85.8307319 139.797673,85.8307319 L139.797673,83.3784253 C138.437978,83.3784253 137.345366,82.2858134 137.345366,80.9261186 C137.345366,79.5664239 138.437978,78.473812 139.797673,78.473812 L139.797673,76.0215054 C138.437978,76.0215054 137.345366,74.9288935 137.345366,73.5691988 C137.345366,72.209504 138.437978,71.1168921 139.797673,71.1168921 L139.797673,68.6645855 C138.437978,68.6645855 137.345366,67.5719736 137.345366,66.2122789 C137.345366,64.8525841 138.437978,63.7599723 139.797673,63.7599723 L139.797673,61.3076656 C138.437978,61.3076656 137.345366,60.2150538 137.345366,58.855359 C137.345366,57.4956642 138.437978,56.4030524 139.797673,56.4030524 L139.797673,53.9507458 C138.437978,53.9507458 137.345366,52.8581339 137.345366,51.4984391 C137.345366,50.1387444 138.437978,49.0461325 139.797673,49.0461325 L139.797673,46.5938259 C138.437978,46.5938259 137.345366,45.501214 137.345366,44.1415193 C137.345366,42.7818245 138.437978,41.6892126 139.797673,41.6892126 L139.797673,39.236906 C138.437978,39.236906 137.345366,38.1442941 137.345366,36.7845994 C137.345366,35.4249046 138.437978,34.3322928 139.797673,34.3322928 L139.797673,31.8799861 C138.437978,31.8799861 137.345366,30.7873743 137.345366,29.4276795 C137.345366,28.0679847 138.437978,26.9753729 139.797673,26.9753729 L139.797673,24.5230663 C138.437978,24.5230663 137.345366,23.4304544 137.345366,22.0707596 C137.345366,20.7110649 138.437978,19.618453 139.797673,19.618453 L139.797673,17.1661464 C138.437978,17.1661464 137.345366,16.0735345 137.345366,14.7138398 C137.345366,13.354145 138.437978,12.2615331 139.797673,12.2615331 L139.797673,9.8092265 C138.437978,9.8092265 137.345366,8.71661464 137.345366,7.35691988 C137.345366,5.99722511 138.437978,4.90461325 139.797673,4.90461325 L139.797673,2.45230663 C138.437978,2.45230663 137.345366,1.35969476 137.345366,0 L134.893059,0 C134.893059,1.35969476 133.800447,2.45230663 132.440753,2.45230663 C131.081058,2.45230663 129.988446,1.35969476 129.988446,0 L127.536139,0 C127.536139,1.35969476 126.443528,2.45230663 125.083833,2.45230663 C123.724138,2.45230663 122.631526,1.35969476 122.631526,0 L120.17922,0 C120.17922,1.35969476 119.086608,2.45230663 117.726913,2.45230663 C116.367218,2.45230663 115.274606,1.35969476 115.274606,0 L112.8223,0 C112.8223,1.35969476 111.729688,2.45230663 110.369993,2.45230663 C109.010298,2.45230663 107.917686,1.35969476 107.917686,0 L105.46538,0 C105.46538,1.35969476 104.372768,2.45230663 103.013073,2.45230663 C101.653378,2.45230663 100.560767,1.35969476 100.560767,0 L98.1084599,0 C98.1084599,1.35969476 97.0158481,2.45230663 95.6561533,2.45230663 C94.2964586,2.45230663 93.2038467,1.35969476 93.2038467,0 L90.7515401,0 C90.7515401,1.35969476 89.6589282,2.45230663 88.2992334,2.45230663 C86.9395387,2.45230663 85.8469268,1.35969476 85.8469268,0 L83.3946202,0 C83.3946202,1.35969476 82.3020083,2.45230663 80.9423136,2.45230663 C79.5826188,2.45230663 78.4900069,1.35969476 78.4900069,0 L76.0377003,0 C76.0377003,1.35969476 74.9450884,2.45230663 73.5853937,2.45230663 C72.2256989,2.45230663 71.1330871,1.35969476 71.1330871,0 L68.6807804,0 C68.6807804,1.35969476 67.5881686,2.45230663 66.2284738,2.45230663 C64.868779,2.45230663 63.7761672,1.35969476 63.7761672,0 L61.3238606,0 C61.3238606,1.35969476 60.2312487,2.45230663 58.8715539,2.45230663 C57.5118592,2.45230663 56.4192473,1.35969476 56.4192473,0 L53.9669407,0 C53.9669407,1.35969476 52.8743288,2.45230663 51.5146341,2.45230663 C50.1549393,2.45230663 49.0623274,1.35969476 49.0623274,0 L46.6100208,0 C46.6100208,1.35969476 45.5174089,2.45230663 44.1577142,2.45230663 C42.7980194,2.45230663 41.7054076,1.35969476 41.7054076,0 L39.2531009,0 C39.2531009,1.35969476 38.1604891,2.45230663 36.8007943,2.45230663 C35.4410995,2.45230663 34.3484877,1.35969476 34.3484877,0 L31.8961811,0 C31.8961811,1.35969476 30.8035692,2.45230663 29.4438744,2.45230663 C28.0841797,2.45230663 26.9915678,1.35969476 26.9915678,0 L24.5392612,0 C24.5392612,1.35969476 23.4466493,2.45230663 22.0869546,2.45230663 C20.7272598,2.45230663 19.6346479,1.35969476 19.6346479,0 L17.1823413,0 C17.1823413,1.35969476 16.0897294,2.45230663 14.7300347,2.45230663 C13.3703399,2.45230663 12.2777281,1.35969476 12.2777281,0 L9.82542144,0 C9.82542144,1.35969476 8.73280957,2.45230663 7.37311481,2.45230663 C6.01342005,2.45230663 4.92080819,1.35969476 4.92080819,0 L2.46850156,0 C2.46850156,1.35969476 1.3758897,2.45230663 0.0161949358,2.45230663 L0.0161949358,4.90461325 C1.3758897,4.90461325 2.46850156,5.99722511 2.46850156,7.35691988 C2.46850156,8.71661464 1.3758897,9.8092265 0.0161949358,9.8092265 L0.0161949358,12.2615331 C1.3758897,12.2615331 2.46850156,13.354145 2.46850156,14.7138398 C2.46850156,16.0735345 1.3758897,17.1661464 0.0161949358,17.1661464 L0.0161949358,19.618453 C1.3758897,19.618453 2.46850156,20.7110649 2.46850156,22.0707596 C2.46850156,23.4304544 1.3758897,24.5230663 0.0161949358,24.5230663 L0.0161949358,26.9753729 C1.3758897,26.9753729 2.46850156,28.0679847 2.46850156,29.4276795 C2.46850156,30.7873743 1.3758897,31.8799861 0.0161949358,31.8799861 L0.0161949358,34.3322928 C1.3758897,34.3322928 2.46850156,35.4249046 2.46850156,36.7845994 C2.46850156,38.1442941 1.3758897,39.236906 0.0161949358,39.236906 L0.0161949358,41.6892126 C1.3758897,41.6892126 2.46850156,42.7818245 2.46850156,44.1415193 C2.46850156,45.501214 1.3758897,46.5938259 0.0161949358,46.5938259 L0.0161949358,49.0461325 C1.3758897,49.0461325 2.46850156,50.1387444 2.46850156,51.4984391 C2.46850156,52.8581339 1.3758897,53.9507458 0.0161949358,53.9507458 L0.0161949358,56.4030524 C1.3758897,56.4030524 2.46850156,57.4956642 2.46850156,58.855359 C2.46850156,60.2150538 1.3758897,61.3076656 0.0161949358,61.3076656 L0.0161949358,63.7599723 C1.3758897,63.7599723 2.46850156,64.8525841 2.46850156,66.2122789 C2.46850156,67.5719736 1.3758897,68.6645855 0.0161949358,68.6645855 L0.0161949358,71.1168921 C1.3758897,71.1168921 2.46850156,72.209504 2.46850156,73.5691988 C2.46850156,74.9288935 1.3758897,76.0215054 0.0161949358,76.0215054 L0.0161949358,78.473812 C1.3758897,78.473812 2.46850156,79.5664239 2.46850156,80.9261186 C2.46850156,82.2858134 1.3758897,83.3784253 0.0161949358,83.3784253 L0.0161949358,85.8307319 C1.3758897,85.8307319 2.46850156,86.9233437 2.46850156,88.2830385 C2.46850156,89.6427333 1.3758897,90.7353451 0.0161949358,90.7353451 L0.0161949358,93.1876518 C1.3758897,93.1876518 2.46850156,94.2802636 2.46850156,95.6399584 C2.46850156,96.9996531 1.3758897,98.092265 0.0161949358,98.092265 L0.0161949358,100.544572 C1.3758897,100.544572 2.46850156,101.637183 2.46850156,102.996878 C2.46850156,104.356573 1.3758897,105.449185 0.0161949358,105.449185 L0.0161949358,107.901492 C1.3758897,107.901492 2.46850156,108.994103 2.46850156,110.353798 L4.92080819,110.353798 C4.92080819,108.994103 6.01342005,107.901492 7.37311481,107.901492 Z" id="svg_2" fill="#EFEFF0"></path>
                    <path d="M7.37311481,107.901492 C8.73280957,107.901492 9.82542144,108.994103 9.82542144,110.353798 L12.2777281,110.353798 C12.2777281,108.994103 13.3703399,107.901492 14.7300347,107.901492 C16.0897294,107.901492 17.1823413,108.994103 17.1823413,110.353798 L19.6346479,110.353798 C19.6346479,108.994103 20.7272598,107.901492 22.0869546,107.901492 C23.4466493,107.901492 24.5392612,108.994103 24.5392612,110.353798 L26.9915678,110.353798 C26.9915678,108.994103 28.0841797,107.901492 29.4438744,107.901492 C30.8035692,107.901492 31.8961811,108.994103 31.8961811,110.353798 L34.3484877,110.353798 C34.3484877,108.994103 35.4410995,107.901492 36.8007943,107.901492 C38.1604891,107.901492 39.2531009,108.994103 39.2531009,110.353798 L41.7054076,110.353798 C41.7054076,108.994103 42.7980194,107.901492 44.1577142,107.901492 C45.5174089,107.901492 46.6100208,108.994103 46.6100208,110.353798 L49.0623274,110.353798 C49.0623274,108.994103 50.1549393,107.901492 51.5146341,107.901492 C52.8743288,107.901492 53.9669407,108.994103 53.9669407,110.353798 L56.4192473,110.353798 C56.4192473,108.994103 57.5118592,107.901492 58.8715539,107.901492 C60.2312487,107.901492 61.3238606,108.994103 61.3238606,110.353798 L63.7761672,110.353798 C63.7761672,108.994103 64.868779,107.901492 66.2284738,107.901492 C67.5881686,107.901492 68.6807804,108.994103 68.6807804,110.353798 L71.1330871,110.353798 C71.1330871,108.994103 72.2256989,107.901492 73.5853937,107.901492 C74.9450884,107.901492 76.0377003,108.994103 76.0377003,110.353798 L78.4900069,110.353798 C78.4900069,108.994103 79.5826188,107.901492 80.9423136,107.901492 C82.3020083,107.901492 83.3946202,108.994103 83.3946202,110.353798 L85.8469268,110.353798 C85.8469268,108.994103 86.9395387,107.901492 88.2992334,107.901492 C89.6589282,107.901492 90.7515401,108.994103 90.7515401,110.353798 L93.2038467,110.353798 C93.2038467,108.994103 94.2964586,107.901492 95.6561533,107.901492 C97.0158481,107.901492 98.1084599,108.994103 98.1084599,110.353798 L100.560767,110.353798 C100.560767,108.994103 101.653378,107.901492 103.013073,107.901492 C104.372768,107.901492 105.46538,108.994103 105.46538,110.353798 L107.917686,110.353798 C107.917686,108.994103 109.010298,107.901492 110.369993,107.901492 C111.729688,107.901492 112.8223,108.994103 112.8223,110.353798 L115.274606,110.353798 C115.274606,108.994103 116.367218,107.901492 117.726913,107.901492 C119.086608,107.901492 120.17922,108.994103 120.17922,110.353798 L122.631526,110.353798 C122.631526,108.994103 123.724138,107.901492 125.083833,107.901492 C126.443528,107.901492 127.536139,108.994103 127.536139,110.353798 L129.988446,110.353798 C129.988446,108.994103 131.081058,107.901492 132.440753,107.901492 C133.800447,107.901492 134.893059,108.994103 134.893059,110.353798 L137.345366,110.353798 C137.345366,108.994103 138.437978,107.901492 139.797673,107.901492 L139.797673,105.449185 C138.437978,105.449185 137.345366,104.356573 137.345366,102.996878 C137.345366,101.637183 138.437978,100.544572 139.797673,100.544572 L139.797673,98.092265 C138.437978,98.092265 137.345366,96.9996531 137.345366,95.6399584 C137.345366,94.2802636 138.437978,93.1876518 139.797673,93.1876518 L139.797673,90.7353451 C138.437978,90.7353451 137.345366,89.6427333 137.345366,88.2830385 C137.345366,86.9233437 138.437978,85.8307319 139.797673,85.8307319 L139.797673,83.3784253 C138.437978,83.3784253 137.345366,82.2858134 137.345366,80.9261186 C137.345366,79.5664239 138.437978,78.473812 139.797673,78.473812 L139.797673,76.0215054 C138.437978,76.0215054 137.345366,74.9288935 137.345366,73.5691988 C137.345366,72.209504 138.437978,71.1168921 139.797673,71.1168921 L139.797673,68.6645855 C138.437978,68.6645855 137.345366,67.5719736 137.345366,66.2122789 C137.345366,64.8525841 138.437978,63.7599723 139.797673,63.7599723 L139.797673,61.3076656 C138.437978,61.3076656 137.345366,60.2150538 137.345366,58.855359 C137.345366,57.4956642 138.437978,56.4030524 139.797673,56.4030524 L139.797673,53.9507458 C138.437978,53.9507458 137.345366,52.8581339 137.345366,51.4984391 C137.345366,50.1387444 138.437978,49.0461325 139.797673,49.0461325 L139.797673,46.5938259 C138.437978,46.5938259 137.345366,45.501214 137.345366,44.1415193 C137.345366,42.7818245 138.437978,41.6892126 139.797673,41.6892126 L139.797673,39.236906 C138.437978,39.236906 137.345366,38.1442941 137.345366,36.7845994 C137.345366,35.4249046 138.437978,34.3322928 139.797673,34.3322928 L139.797673,31.8799861 C138.437978,31.8799861 137.345366,30.7873743 137.345366,29.4276795 C137.345366,28.0679847 138.437978,26.9753729 139.797673,26.9753729 L139.797673,24.5230663 C138.437978,24.5230663 137.345366,23.4304544 137.345366,22.0707596 C137.345366,20.7110649 138.437978,19.618453 139.797673,19.618453 L139.797673,17.1661464 C138.437978,17.1661464 137.345366,16.0735345 137.345366,14.7138398 C137.345366,13.354145 138.437978,12.2615331 139.797673,12.2615331 L139.797673,9.8092265 C138.437978,9.8092265 137.345366,8.71661464 137.345366,7.35691988 C137.345366,5.99722511 138.437978,4.90461325 139.797673,4.90461325 L139.797673,2.45230663 C138.437978,2.45230663 137.345366,1.35969476 137.345366,0 L134.893059,0 C134.893059,1.35969476 133.800447,2.45230663 132.440753,2.45230663 C131.081058,2.45230663 129.988446,1.35969476 129.988446,0 L127.536139,0 C127.536139,1.35969476 126.443528,2.45230663 125.083833,2.45230663 C123.724138,2.45230663 122.631526,1.35969476 122.631526,0 L120.17922,0 C120.17922,1.35969476 119.086608,2.45230663 117.726913,2.45230663 C116.367218,2.45230663 115.274606,1.35969476 115.274606,0 L112.8223,0 C112.8223,1.35969476 111.729688,2.45230663 110.369993,2.45230663 C109.010298,2.45230663 107.917686,1.35969476 107.917686,0 L105.46538,0 C105.46538,1.35969476 104.372768,2.45230663 103.013073,2.45230663 C101.653378,2.45230663 100.560767,1.35969476 100.560767,0 L98.1084599,0 C98.1084599,1.35969476 97.0158481,2.45230663 95.6561533,2.45230663 C94.2964586,2.45230663 93.2038467,1.35969476 93.2038467,0 L90.7515401,0 C90.7515401,1.35969476 89.6589282,2.45230663 88.2992334,2.45230663 C86.9395387,2.45230663 85.8469268,1.35969476 85.8469268,0 L83.3946202,0 C83.3946202,1.35969476 82.3020083,2.45230663 80.9423136,2.45230663 C79.5826188,2.45230663 78.4900069,1.35969476 78.4900069,0 L76.0377003,0 C76.0377003,1.35969476 74.9450884,2.45230663 73.5853937,2.45230663 C72.2256989,2.45230663 71.1330871,1.35969476 71.1330871,0 L68.6807804,0 C68.6807804,1.35969476 67.5881686,2.45230663 66.2284738,2.45230663 C64.868779,2.45230663 63.7761672,1.35969476 63.7761672,0 L61.3238606,0 C61.3238606,1.35969476 60.2312487,2.45230663 58.8715539,2.45230663 C57.5118592,2.45230663 56.4192473,1.35969476 56.4192473,0 L53.9669407,0 C53.9669407,1.35969476 52.8743288,2.45230663 51.5146341,2.45230663 C50.1549393,2.45230663 49.0623274,1.35969476 49.0623274,0 L46.6100208,0 C46.6100208,1.35969476 45.5174089,2.45230663 44.1577142,2.45230663 C42.7980194,2.45230663 41.7054076,1.35969476 41.7054076,0 L39.2531009,0 C39.2531009,1.35969476 38.1604891,2.45230663 36.8007943,2.45230663 C35.4410995,2.45230663 34.3484877,1.35969476 34.3484877,0 L31.8961811,0 C31.8961811,1.35969476 30.8035692,2.45230663 29.4438744,2.45230663 C28.0841797,2.45230663 26.9915678,1.35969476 26.9915678,0 L24.5392612,0 C24.5392612,1.35969476 23.4466493,2.45230663 22.0869546,2.45230663 C20.7272598,2.45230663 19.6346479,1.35969476 19.6346479,0 L17.1823413,0 C17.1823413,1.35969476 16.0897294,2.45230663 14.7300347,2.45230663 C13.3703399,2.45230663 12.2777281,1.35969476 12.2777281,0 L9.82542144,0 C9.82542144,1.35969476 8.73280957,2.45230663 7.37311481,2.45230663 C6.01342005,2.45230663 4.92080819,1.35969476 4.92080819,0 L2.46850156,0 C2.46850156,1.35969476 1.3758897,2.45230663 0.0161949358,2.45230663 L0.0161949358,4.90461325 C1.3758897,4.90461325 2.46850156,5.99722511 2.46850156,7.35691988 C2.46850156,8.71661464 1.3758897,9.8092265 0.0161949358,9.8092265 L0.0161949358,12.2615331 C1.3758897,12.2615331 2.46850156,13.354145 2.46850156,14.7138398 C2.46850156,16.0735345 1.3758897,17.1661464 0.0161949358,17.1661464 L0.0161949358,19.618453 C1.3758897,19.618453 2.46850156,20.7110649 2.46850156,22.0707596 C2.46850156,23.4304544 1.3758897,24.5230663 0.0161949358,24.5230663 L0.0161949358,26.9753729 C1.3758897,26.9753729 2.46850156,28.0679847 2.46850156,29.4276795 C2.46850156,30.7873743 1.3758897,31.8799861 0.0161949358,31.8799861 L0.0161949358,34.3322928 C1.3758897,34.3322928 2.46850156,35.4249046 2.46850156,36.7845994 C2.46850156,38.1442941 1.3758897,39.236906 0.0161949358,39.236906 L0.0161949358,41.6892126 C1.3758897,41.6892126 2.46850156,42.7818245 2.46850156,44.1415193 C2.46850156,45.501214 1.3758897,46.5938259 0.0161949358,46.5938259 L0.0161949358,49.0461325 C1.3758897,49.0461325 2.46850156,50.1387444 2.46850156,51.4984391 C2.46850156,52.8581339 1.3758897,53.9507458 0.0161949358,53.9507458 L0.0161949358,56.4030524 C1.3758897,56.4030524 2.46850156,57.4956642 2.46850156,58.855359 C2.46850156,60.2150538 1.3758897,61.3076656 0.0161949358,61.3076656 L0.0161949358,63.7599723 C1.3758897,63.7599723 2.46850156,64.8525841 2.46850156,66.2122789 C2.46850156,67.5719736 1.3758897,68.6645855 0.0161949358,68.6645855 L0.0161949358,71.1168921 C1.3758897,71.1168921 2.46850156,72.209504 2.46850156,73.5691988 C2.46850156,74.9288935 1.3758897,76.0215054 0.0161949358,76.0215054 L0.0161949358,78.473812 C1.3758897,78.473812 2.46850156,79.5664239 2.46850156,80.9261186 C2.46850156,82.2858134 1.3758897,83.3784253 0.0161949358,83.3784253 L0.0161949358,85.8307319 C1.3758897,85.8307319 2.46850156,86.9233437 2.46850156,88.2830385 C2.46850156,89.6427333 1.3758897,90.7353451 0.0161949358,90.7353451 L0.0161949358,93.1876518 C1.3758897,93.1876518 2.46850156,94.2802636 2.46850156,95.6399584 C2.46850156,96.9996531 1.3758897,98.092265 0.0161949358,98.092265 L0.0161949358,100.544572 C1.3758897,100.544572 2.46850156,101.637183 2.46850156,102.996878 C2.46850156,104.356573 1.3758897,105.449185 0.0161949358,105.449185 L0.0161949358,107.901492 C1.3758897,107.901492 2.46850156,108.994103 2.46850156,110.353798 L4.92080819,110.353798 C4.92080819,108.994103 6.01342005,107.901492 7.37311481,107.901492 Z" id="svg_3" fill="#EFEFF0"></path>
                    <polygon id="svg_4" fill="#CBE8DD" points="6.15910163 104.283732 133.509157 104.283732 133.509157 6.28858828 6.15910163 6.28858828"></polygon>
                    <path d="M25.1949011,67.3534513 L22.3055498,67.3534513 C21.868505,67.3534513 21.5285813,67.0135276 21.5285813,66.5764828 L21.5285813,51.7898023 C21.5285813,50.8914325 20.8244537,50.2115852 19.9260839,50.2358654 C19.0762747,50.2601457 18.3964273,51.0128339 18.3964273,51.8869233 L18.3964273,68.8831079 C18.3964273,69.7571974 19.100555,70.461325 19.9746445,70.461325 L25.2677419,70.461325 C26.1661117,70.461325 26.8459591,69.7571974 26.8216788,68.8588276 C26.7973985,68.0090184 26.0447104,67.329171 25.1706209,67.329171 L25.1949011,67.3534513 Z" id="svg_5" fill="#258979"></path>
                    <path d="M30.0266736,53.3680194 C29.1768644,53.3922997 28.497017,54.1449879 28.497017,55.0190773 L28.497017,69.0287895 C28.497017,69.9271592 29.2011446,70.6070066 30.0995144,70.5827263 C30.9493236,70.5584461 31.629171,69.8057579 31.629171,68.9316684 L31.629171,54.9219563 C31.629171,54.0235865 30.9250434,53.3437392 30.0266736,53.3680194 Z" id="svg_6" fill="#258979"></path>
                    <path d="M41.3169962,42.3933403 L34.4456816,42.3933403 C33.5473118,42.3933403 32.8674644,43.0974679 32.8917447,43.9958377 C32.916025,44.8456469 33.6687131,45.5254943 34.5428026,45.5254943 L35.5382934,45.5254943 C35.9753382,45.5254943 36.3152619,45.865418 36.3152619,46.3024627 L36.3152619,69.0287895 C36.3152619,69.9271592 37.0193895,70.6070066 37.9177593,70.5827263 C38.7675685,70.5584461 39.4474159,69.8057579 39.4474159,68.9316684 L39.4474159,46.2781824 C39.4474159,45.8411377 39.7873396,45.501214 40.2243843,45.501214 L41.2198751,45.501214 C42.0696844,45.501214 42.8466528,44.8456469 42.8709331,43.9715574 C42.8952133,43.0731877 42.1910857,42.36906 41.3169962,42.36906 L41.3169962,42.3933403 Z" id="svg_7" fill="#258979"></path>
                    <path d="M54.2583767,43.9715574 C53.3600069,43.9472771 52.6558793,44.6514048 52.6558793,45.5254943 L52.6558793,55.723205 C52.6558793,56.1602497 52.3159556,56.5001734 51.8789109,56.5001734 L48.7710371,56.5001734 C48.3339924,56.5001734 47.9940687,56.1602497 47.9940687,55.723205 L47.9940687,39.2611863 C47.9940687,38.3628165 47.289941,37.6829691 46.3915713,37.7072494 C45.5417621,37.7315297 44.8619147,38.4842178 44.8619147,39.3583073 L44.8619147,69.0530697 C44.8619147,69.9514395 45.5660423,70.6312869 46.4644121,70.6070066 C47.3142213,70.5827263 47.9940687,69.8300382 47.9940687,68.9559487 L47.9940687,60.4092959 C47.9940687,59.9722511 48.3339924,59.6323274 48.7710371,59.6323274 L51.8789109,59.6323274 C52.3159556,59.6323274 52.6558793,59.9722511 52.6558793,60.4092959 L52.6558793,69.0530697 C52.6558793,69.9514395 53.3600069,70.6312869 54.2583767,70.6070066 C55.1081859,70.5827263 55.7880333,69.8300382 55.7880333,68.9559487 L55.7880333,45.6226153 C55.7880333,44.7728061 55.1324662,43.9958377 54.2583767,43.9715574 Z" id="svg_8" fill="#258979"></path>
                    <path d="M61.00829,48.6576483 C61.8580992,48.6819285 62.5379466,49.4346167 62.5379466,50.3087062 L62.5379466,65.1439473 C62.5379466,66.6493236 63.9704821,67.790496 65.4515782,67.4020118 C66.4956296,67.1349289 67.1997572,66.1151578 67.1997572,65.0468262 L67.1997572,51.7898023 C67.1997572,50.8914325 67.9038848,50.2115852 68.8022546,50.2358654 C69.6520638,50.2601457 70.3319112,51.0128339 70.3319112,51.8869233 L70.3319112,64.9982657 C70.3319112,67.7662157 68.3166493,70.2428026 65.5729795,70.5827263 C62.2951439,70.9954908 59.4300728,68.4217829 59.4300728,65.1682275 L59.4300728,50.2358654 C59.4300728,49.3374957 60.1342005,48.6576483 61.0325702,48.6819285 L61.00829,48.6576483 Z" id="svg_9" fill="#258979"></path>
                    <path d="M97.210163,37.6101283 C96.3603538,37.6344086 95.6805064,38.3870968 95.6805064,39.2611863 L95.6805064,51.0128339 C95.6805064,51.2313562 95.3891433,51.3284773 95.2677419,51.1342352 L90.7273326,44.6271245 C90.4359695,44.1900798 89.9503642,43.8987166 89.3676379,43.9229969 C88.5178287,43.9472771 87.8622615,44.6999653 87.8622615,45.5497745 L87.8622615,69.0045092 C87.8622615,69.9028789 88.5663892,70.5827263 89.4647589,70.5584461 C90.3145682,70.5341658 90.9944155,69.7814776 90.9944155,68.9073881 L90.9944155,51.2313562 C90.9944155,51.0128339 91.2614984,50.9399931 91.3828998,51.1099549 L95.2677419,56.5730142 C95.5348248,56.9614984 95.6805064,57.3985432 95.6805064,57.8598682 L95.6805064,68.9802289 C95.6805064,69.8785987 96.3846341,70.5584461 97.2830038,70.5341658 C98.132813,70.5098855 98.8126604,69.7571974 98.8126604,68.8831079 L98.8126604,39.1155047 C98.8126604,38.2171349 98.1085328,37.5372875 97.210163,37.5615678 L97.210163,37.6101283 Z" id="svg_10" fill="#258979"></path>
                    <path d="M104.445682,43.8744364 C103.595872,43.8987166 102.916025,44.6514048 102.916025,45.5254943 L102.916025,69.0287895 C102.916025,69.9271592 103.620153,70.6070066 104.518522,70.5827263 C105.368332,70.5584461 106.048179,69.8057579 106.048179,68.9316684 L106.048179,45.4283732 C106.048179,44.5300035 105.344051,43.8501561 104.445682,43.8744364 Z" id="svg_11" fill="#258979"></path>
                    <path d="M80.165418,62.3274367 L77.7373916,62.3274367 C77.2517863,62.3274367 76.8633021,61.890392 76.9604232,61.4047867 L78.7328824,52.0568852 C78.7814429,51.8140826 79.1213666,51.8140826 79.1699272,52.0568852 L80.9423864,61.4047867 C81.0395075,61.890392 80.6510232,62.3274367 80.165418,62.3274367 Z M80.4810614,45.1127298 C80.4810614,45.0884495 80.4567811,45.039889 80.4567811,45.0156087 C80.4325009,44.9670482 80.4325009,44.8942074 80.4082206,44.8456469 C80.3839403,44.7970864 80.3596601,44.7485258 80.3353798,44.6999653 C80.3110995,44.6514048 80.2868193,44.6271245 80.262539,44.578564 C80.2382588,44.5300035 80.1896982,44.4814429 80.165418,44.4571627 C80.1411377,44.4328824 80.1168574,44.3843219 80.0682969,44.3600416 C80.0197364,44.3114811 79.9954561,44.2872008 79.9468956,44.2629206 C79.8983351,44.2386403 79.8740548,44.1900798 79.8254943,44.1657995 C79.7769337,44.1415193 79.7283732,44.117239 79.6798127,44.0929587 C79.6312522,44.0686785 79.6069719,44.0443982 79.5584114,44.0201179 C79.5098508,43.9958377 79.4370101,43.9715574 79.3884495,43.9715574 C79.3641693,43.9715574 79.3156087,43.9472771 79.2913285,43.9472771 L79.2670482,43.9472771 C79.2184877,43.9472771 79.1456469,43.9229969 79.0970864,43.9229969 C79.0485258,43.9229969 78.9999653,43.9229969 78.9514048,43.9229969 C78.9028443,43.9229969 78.8542837,43.9229969 78.8057232,43.9229969 C78.7571627,43.9229969 78.6843219,43.9229969 78.6357614,43.9472771 L78.6114811,43.9472771 C78.5629206,43.9472771 78.5386403,43.9715574 78.51436,43.9715574 C78.4657995,43.9958377 78.417239,43.9958377 78.3686785,44.0201179 C78.3201179,44.0443982 78.2715574,44.0686785 78.2229969,44.0929587 C78.1744364,44.117239 78.1501561,44.1415193 78.1015956,44.1657995 C78.053035,44.1900798 78.0287548,44.2386403 77.9801942,44.2629206 C77.9316337,44.2872008 77.9073535,44.3114811 77.8830732,44.3600416 C77.8587929,44.3843219 77.8102324,44.4328824 77.7859521,44.4814429 C77.7616719,44.5300035 77.7131113,44.5542837 77.6888311,44.6028443 C77.6645508,44.6514048 77.6402706,44.6999653 77.6159903,44.7242456 C77.59171,44.7728061 77.5674298,44.8213666 77.5431495,44.8456469 C77.5188692,44.8942074 77.494589,44.9670482 77.494589,45.0156087 C77.494589,45.039889 77.4703087,45.0884495 77.4703087,45.1127298 L72.2257718,68.713146 C72.0315297,69.538675 72.5656955,70.3884842 73.4155047,70.5584461 C73.536906,70.5827263 73.6340271,70.6070066 73.7554284,70.6070066 C74.459556,70.6070066 75.1151231,70.1214013 75.2608047,69.3929934 L76.0377732,65.8723552 C76.0863337,65.6052723 76.3291363,65.4353104 76.5962192,65.4353104 L81.3794311,65.4353104 C81.646514,65.4353104 81.8650364,65.6295525 81.9378772,65.8723552 L82.7148456,69.3929934 C82.8848075,70.1214013 83.5160943,70.6070066 84.220222,70.6070066 C84.3416233,70.6070066 84.4387444,70.5827263 84.5601457,70.5584461 C85.3856746,70.364204 85.9198404,69.538675 85.7498786,68.713146 L80.5053417,45.1127298 L80.4810614,45.1127298 Z" id="svg_12" fill="#258979" fill-rule="nonzero"></path>
                    <path d="M115.663163,63.371488 L113.987825,63.371488 C113.47794,63.371488 113.113736,62.910163 113.210857,62.4245578 L114.594832,55.8931668 C114.643392,55.6503642 114.983316,55.6503642 115.031877,55.8931668 L116.415852,62.4245578 C116.512973,62.910163 116.148769,63.371488 115.638883,63.371488 L115.663163,63.371488 Z M121.174783,68.5674644 L120.155012,64.658342 C120.155012,64.5855012 120.130732,64.5369407 120.106452,64.4883802 L116.31873,49.8473812 L116.29445,49.7988207 C116.27017,49.7502601 116.27017,49.7016996 116.24589,49.6531391 C116.221609,49.6045786 116.197329,49.556018 116.173049,49.5317378 C116.148769,49.4831772 116.124488,49.4346167 116.100208,49.4103365 C116.075928,49.3617759 116.051648,49.3374957 116.003087,49.2889351 C115.978807,49.2403746 115.930246,49.2160943 115.905966,49.1918141 C115.881686,49.1675338 115.833125,49.1189733 115.784565,49.094693 C115.736004,49.0704128 115.711724,49.0461325 115.663163,48.997572 C115.614603,48.9732917 115.566042,48.9490114 115.541762,48.9247312 C115.493202,48.9004509 115.468921,48.8761707 115.420361,48.8761707 C115.3718,48.8518904 115.32324,48.8276101 115.250399,48.8276101 L115.201838,48.8033299 L115.128998,48.8033299 C115.080437,48.8033299 115.007596,48.7790496 114.959036,48.7790496 C114.910475,48.7790496 114.861915,48.7790496 114.813354,48.7790496 C114.764794,48.7790496 114.716233,48.7790496 114.667673,48.7790496 C114.619112,48.7790496 114.546271,48.8033299 114.497711,48.8033299 L114.42487,48.8033299 L114.376309,48.8276101 C114.327749,48.8518904 114.279188,48.8518904 114.230628,48.8761707 C114.182067,48.9004509 114.133507,48.9247312 114.109227,48.9490114 C114.060666,48.9732917 114.036386,48.997572 113.987825,49.0218522 C113.939265,49.0461325 113.890704,49.0704128 113.866424,49.1189733 C113.817863,49.1432536 113.793583,49.1918141 113.769303,49.2160943 C113.720742,49.2646549 113.696462,49.2889351 113.672182,49.3374957 C113.647901,49.3860562 113.623621,49.4103365 113.575061,49.458897 C113.55078,49.5074575 113.5265,49.556018 113.50222,49.5802983 C113.47794,49.6288588 113.453659,49.6531391 113.453659,49.7016996 C113.429379,49.7502601 113.405099,49.7988207 113.405099,49.8716615 L113.380819,49.920222 L108.500486,68.7374263 C108.281963,69.5629553 108.791849,70.4127645 109.617378,70.6312869 C109.738779,70.6555671 109.884461,70.6798474 110.005862,70.6798474 C110.685709,70.6798474 111.316996,70.2185224 111.511238,69.5143947 L112.118245,67.1592092 C112.215366,66.8192855 112.531009,66.5764828 112.870933,66.5764828 L116.877177,66.5764828 C117.241381,66.5764828 117.557024,66.8192855 117.629865,67.1592092 L118.236871,69.5143947 C118.406833,70.2185224 119.03812,70.6798474 119.742248,70.6798474 C119.93649,70.6798474 120.106452,70.6555671 120.300694,70.5827263 C121.053382,70.2913632 121.441866,69.4415539 121.223344,68.6645855 L121.174783,68.5674644 Z" id="svg_13" fill="#258979" fill-rule="nonzero"></path>
                    <path d="M21.7955914,86.3406174 C23.5680506,86.3406174 24.5878217,85.3208463 24.5878217,84.0582726 C24.5878217,82.7956989 23.5680506,81.7759279 21.7955914,81.7759279 L19.5132466,81.7759279 L19.5132466,86.3406174 L21.7955914,86.3406174 Z M26.360281,92.0221991 L25.0005862,92.0221991 L22.3783177,87.4332293 L19.4889664,87.4332293 L19.4889664,92.0221991 L18.3963545,92.0221991 L18.3963545,80.6590357 L21.7955914,80.6590357 C24.247898,80.6590357 25.7775546,82.1886923 25.7775546,84.0582726 C25.7775546,86.5105793 23.4952099,87.1175858 23.4952099,87.1175858 L23.4952099,87.1904266 L26.3845612,92.0221991 L26.360281,92.0221991 Z" id="svg_14" fill="#258979" fill-rule="nonzero"></path>
                    <path d="M28.6669788,88.1130767 L33.4016302,88.1130767 C33.2316684,86.9233437 32.2118973,85.9035727 31.0221644,85.9035727 C29.8324315,85.9035727 28.8126604,86.9233437 28.6426986,88.1130767 L28.6669788,88.1130767 Z M28.6669788,89.1328477 C28.8369407,90.3225806 29.8567118,91.3423517 31.1192855,91.3423517 C32.7217829,91.3423517 33.4016302,89.9098162 33.4016302,89.9098162 L34.2514395,90.4197017 C34.2514395,90.4197017 33.4016302,92.3621228 31.1192855,92.3621228 C29.2497052,92.3621228 27.5500867,90.6625043 27.5500867,88.6229622 C27.5500867,86.58342 29.2497052,84.8838016 31.0221644,84.8838016 C32.7946237,84.8838016 34.4942421,86.58342 34.4942421,88.6229622 L33.9843566,89.1328477 L28.6426986,89.1328477 L28.6669788,89.1328477 Z" id="svg_15" fill="#258979" fill-rule="nonzero"></path>
                    <path d="M40.6128685,89.1328477 C40.6128685,89.1328477 39.5930975,88.9628859 38.5733264,88.9628859 C37.3107527,88.9628859 36.8008672,89.4727714 36.8008672,90.1526188 C36.8008672,90.8324662 37.3107527,91.3423517 38.4033646,91.3423517 C39.5930975,91.3423517 40.6128685,90.3225806 40.6128685,89.3028096 L40.6128685,89.1328477 Z M41.6326396,87.773153 L41.6326396,92.0221991 L40.6128685,92.0221991 L40.6128685,91.002428 L40.5400277,91.002428 C40.5400277,91.002428 39.7873396,92.3621228 38.257683,92.3621228 C36.7280264,92.3621228 35.7082553,91.3423517 35.7082553,90.1526188 C35.7082553,88.9628859 36.7280264,87.9431148 38.5976067,87.9431148 C39.7873396,87.9431148 40.6371488,88.1859174 40.6371488,88.1859174 L40.6371488,87.773153 C40.6371488,86.7533819 39.7873396,85.9035727 38.7675685,85.9035727 C37.7477974,85.9035727 37.0679501,86.7533819 37.0679501,86.7533819 L36.3152619,86.1706556 C36.3152619,86.1706556 37.0679501,84.9080819 38.7675685,84.9080819 C40.3700659,84.9080819 41.6569199,86.1706556 41.6569199,87.7974332 L41.6326396,87.773153 Z" id="svg_16" fill="#258979" fill-rule="nonzero"></path>
                    <polygon id="svg_17" fill="#258979" points="44.3520291 92.0221991 45.3475199 92.0221991 45.3475199 80.6590357 44.3520291 80.6590357"></polygon>
                    <path d="M51.1262227,85.2480055 L52.1459938,85.2480055 L52.1459938,92.0221991 L51.1262227,92.0221991 L51.1262227,85.2480055 Z M51.6361082,82.528616 C51.2961845,82.528616 50.9562608,82.1886923 50.9562608,81.8487686 C50.9562608,81.508845 51.2961845,81.1689213 51.6361082,81.1689213 C51.9760319,81.1689213 52.3159556,81.508845 52.3159556,81.8487686 C52.3159556,82.1886923 51.9760319,82.528616 51.6361082,82.528616 Z" id="svg_18" fill="#258979" fill-rule="nonzero"></path>
                    <path d="M57.973257,90.1526188 C57.973257,88.7200832 54.0641346,89.2299688 54.0641346,86.8505029 C54.0641346,85.8307319 54.9867846,84.9080819 56.5164412,84.9080819 C58.1189386,84.9080819 58.9687478,86.0978148 58.9687478,86.0978148 L58.2160597,86.7776622 C58.2160597,86.7776622 57.4633715,85.9278529 56.5164412,85.9278529 C55.5937912,85.9278529 55.1567464,86.3406174 55.1567464,86.8505029 C55.1567464,88.2830385 59.0658689,87.773153 59.0658689,90.1526188 C59.0658689,91.3423517 58.0460978,92.3621228 56.3464794,92.3621228 C54.5740201,92.3621228 53.6270898,90.9295872 53.6270898,90.9295872 L54.379778,90.2497399 C54.379778,90.2497399 55.2295872,91.3423517 56.3221991,91.3423517 C57.3419702,91.3423517 57.9246965,90.7596254 57.9246965,90.1526188 L57.973257,90.1526188 Z" id="svg_19" fill="#258979"></path>
                    <path d="M65.1844953,89.3028096 C65.1844953,90.3225806 66.2042664,91.3423517 67.5639612,91.3423517 C68.7536941,91.3423517 69.8463059,90.2497399 69.8463059,88.6229622 C69.8463059,87.0204648 68.7536941,85.9035727 67.5639612,85.9035727 C66.2042664,85.9035727 65.1844953,86.9233437 65.1844953,87.9431148 L65.1844953,89.3028096 Z M65.1844953,92.0221991 L64.1647242,92.0221991 L64.1647242,80.6590357 L65.1844953,80.6590357 L65.1844953,86.2434964 L65.2573361,86.2434964 C65.2573361,86.2434964 66.0100243,84.8838016 67.7096427,84.8838016 C69.3121401,84.8838016 70.9389178,86.486299 70.9389178,88.6229622 C70.9389178,90.7353451 69.3364204,92.3621228 67.7096427,92.3621228 C66.0100243,92.3621228 65.2573361,91.002428 65.2573361,91.002428 L65.1844953,91.002428 L65.1844953,92.0221991 Z" id="svg_20" fill="#258979" fill-rule="nonzero"></path>
                    <path d="M73.4155047,88.1130767 L78.1501561,88.1130767 C77.9801942,86.9233437 76.9604232,85.9035727 75.7706903,85.9035727 C74.5809573,85.9035727 73.5611863,86.9233437 73.3912244,88.1130767 L73.4155047,88.1130767 Z M73.4155047,89.1328477 C73.5854665,90.3225806 74.6052376,91.3423517 75.8678113,91.3423517 C77.4703087,91.3423517 78.1501561,89.9098162 78.1501561,89.9098162 L78.9999653,90.4197017 C78.9999653,90.4197017 78.1501561,92.3621228 75.8678113,92.3621228 C73.998231,92.3621228 72.2986126,90.6625043 72.2986126,88.6229622 C72.2986126,86.58342 73.998231,84.8838016 75.7706903,84.8838016 C77.5431495,84.8838016 79.242768,86.58342 79.242768,88.6229622 L78.7328824,89.1328477 L73.3912244,89.1328477 L73.4155047,89.1328477 Z" id="svg_21" fill="#258979" fill-rule="nonzero"></path>
                    <path d="M85.3613944,89.1328477 C85.3613944,89.1328477 84.3416233,88.9628859 83.3218522,88.9628859 C82.0592785,88.9628859 81.549393,89.4727714 81.549393,90.1526188 C81.549393,90.8324662 82.0592785,91.3423517 83.1518904,91.3423517 C84.3416233,91.3423517 85.3613944,90.3225806 85.3613944,89.3028096 L85.3613944,89.1328477 Z M86.3811655,87.773153 L86.3811655,92.0221991 L85.3613944,92.0221991 L85.3613944,91.002428 L85.2885536,91.002428 C85.2885536,91.002428 84.5358654,92.3621228 83.0062088,92.3621228 C81.4765522,92.3621228 80.4567811,91.3423517 80.4567811,90.1526188 C80.4567811,88.9628859 81.4765522,87.9431148 83.3461325,87.9431148 C84.5358654,87.9431148 85.3856746,88.1859174 85.3856746,88.1859174 L85.3856746,87.773153 C85.3856746,86.7533819 84.5358654,85.9035727 83.5160943,85.9035727 C82.4963233,85.9035727 81.8164759,86.7533819 81.8164759,86.7533819 L81.0637877,86.1706556 C81.0637877,86.1706556 81.8164759,84.9080819 83.5160943,84.9080819 C85.1185917,84.9080819 86.4054457,86.1706556 86.4054457,87.7974332 L86.3811655,87.773153 Z" id="svg_22" fill="#258979" fill-rule="nonzero"></path>
                    <path d="M95.0249393,92.0221991 L94.0051682,92.0221991 L94.0051682,91.002428 L93.9323274,91.002428 C93.9323274,91.002428 93.1796393,92.3621228 91.6499827,92.3621228 C90.2174471,92.3621228 88.9305931,91.0995491 88.9305931,89.4727714 L88.9305931,85.2237253 L89.9503642,85.2237253 L89.9503642,89.4727714 C89.9503642,90.4925425 90.8001734,91.3423517 91.8199445,91.3423517 C93.0096774,91.3423517 94.0294485,90.3225806 94.0294485,89.3028096 L94.0294485,85.2237253 L95.0492196,85.2237253 L95.0492196,91.9979188 L95.0249393,92.0221991 Z" id="svg_23" fill="#258979"></path>
                    <path d="M96.8702393,85.2480055 L98.0599723,85.2480055 L98.0599723,82.6985779 L99.0797433,82.6985779 L99.0797433,85.2480055 L100.949324,85.2480055 L100.949324,86.2677766 L99.0797433,86.2677766 L99.0797433,90.079778 C99.0797433,90.8324662 99.5896289,91.3423517 100.172355,91.3423517 C100.58512,91.3423517 101.022164,91.002428 101.022164,91.002428 L101.434929,91.8522373 C101.434929,91.8522373 100.755082,92.3621228 100.075234,92.3621228 C98.8855012,92.3621228 98.035692,91.5123136 98.035692,90.079778 L98.035692,86.2677766 L96.8459591,86.2677766 L96.8459591,85.2480055 L96.8702393,85.2480055 Z" id="svg_24" fill="#258979"></path>
                    <path d="M102.988866,85.2480055 L104.008637,85.2480055 L104.008637,92.0221991 L102.988866,92.0221991 L102.988866,85.2480055 Z M103.498751,82.528616 C103.158828,82.528616 102.818904,82.1886923 102.818904,81.8487686 C102.818904,81.508845 103.158828,81.1689213 103.498751,81.1689213 C103.838675,81.1689213 104.178599,81.508845 104.178599,81.8487686 C104.178599,82.1886923 103.838675,82.528616 103.498751,82.528616 Z" id="svg_25" fill="#258979" fill-rule="nonzero"></path>
                    <path d="M105.683975,85.2480055 L106.873708,85.2480055 L106.873708,82.6257371 C106.873708,81.1932015 107.723517,80.3433923 108.91325,80.3433923 C109.593097,80.3433923 110.272945,80.8532778 110.272945,80.8532778 L109.86018,81.7030871 C109.86018,81.7030871 109.447416,81.3631634 109.010371,81.3631634 C108.427645,81.3631634 107.917759,81.8730489 107.917759,82.6257371 L107.917759,85.2480055 L109.78734,85.2480055 L109.78734,86.2677766 L107.917759,86.2677766 L107.917759,92.0221991 L106.897988,92.0221991 L106.897988,86.2677766 L105.708255,86.2677766 L105.708255,85.2480055 L105.683975,85.2480055 Z" id="svg_26" fill="#258979"></path>
                    <path d="M117.387062,92.0221991 L116.367291,92.0221991 L116.367291,91.002428 L116.29445,91.002428 C116.29445,91.002428 115.541762,92.3621228 114.012105,92.3621228 C112.57957,92.3621228 111.292716,91.0995491 111.292716,89.4727714 L111.292716,85.2237253 L112.312487,85.2237253 L112.312487,89.4727714 C112.312487,90.4925425 113.162296,91.3423517 114.182067,91.3423517 C115.3718,91.3423517 116.391571,90.3225806 116.391571,89.3028096 L116.391571,85.2237253 L117.411342,85.2237253 L117.411342,91.9979188 L117.387062,92.0221991 Z" id="svg_27" fill="#258979"></path>
                    <polygon id="svg_28" fill="#258979" points="120.276413 92.0221991 121.271904 92.0221991 121.271904 80.6590357 120.276413 80.6590357"></polygon>
                </g>
            </g>
        </g>
    </g>
</svg>